{"glyphs":{":":{"x_min":0,"x_max":245,"ha":245,"o":""},"$":{"x_min":0,"x_max":421,"ha":421,"o":"m 238 -3 q 233 -5 233 -9 l 226 -69 q 225 -74 222 -78 q 218 -81 213 -81 l 152 -81 q 147 -81 144 -78 q 141 -74 142 -69 l 150 -9 q 152 -5 147 -3 q 93 9 63 48 q 33 88 33 146 q 33 155 35 173 l 38 199 q 39 204 42 208 q 46 211 51 211 l 139 211 q 150 211 150 199 l 147 179 q 146 174 146 163 q 146 130 162 111 q 178 92 204 92 q 237 92 260 119 q 284 146 284 188 q 284 218 266 240 q 247 262 196 304 q 156 337 132 362 q 107 387 90 421 q 74 455 74 499 q 74 507 76 527 q 85 598 127 645 q 169 692 232 704 q 237 706 238 710 l 245 776 q 246 781 250 784 q 253 788 258 788 l 318 788 q 323 788 326 784 q 329 781 328 776 l 318 709 q 318 704 322 703 q 374 690 404 650 q 433 610 433 551 q 433 542 431 520 l 429 496 q 428 491 424 488 q 420 484 415 484 l 328 484 q 323 484 320 488 q 317 491 318 496 l 321 522 q 322 528 322 539 q 322 571 306 590 q 290 608 263 608 q 231 608 208 582 q 186 557 186 513 q 186 484 204 460 q 222 437 269 397 q 317 357 343 331 q 369 305 383 276 q 397 246 397 209 q 397 200 395 180 q 386 107 344 58 q 301 10 238 -3 z"},"?":{"x_min":0,"x_max":401,"ha":401,"o":"m 139 226 l 144 267 q 150 314 172 343 q 193 372 234 407 q 273 439 292 466 q 311 492 311 535 q 311 567 296 586 q 282 604 257 604 q 225 604 204 580 q 182 555 177 515 l 174 494 q 173 483 161 483 l 72 487 q 68 487 65 491 q 62 495 62 500 l 64 515 q 71 572 100 616 q 128 661 173 686 q 218 710 272 710 q 344 710 385 668 q 426 626 426 554 q 426 544 424 522 q 416 459 390 423 q 364 387 320 350 q 289 324 274 306 q 259 287 256 260 l 252 226 q 251 221 248 218 q 244 214 239 214 l 149 214 q 144 214 141 218 q 138 221 139 226 z m 108 58 q 108 94 130 117 q 152 140 185 140 q 213 140 230 124 q 246 108 246 80 q 246 46 223 22 q 200 -1 168 -1 q 141 -1 124 16 q 108 32 108 58 z"},"<":{"x_min":0,"x_max":426,"ha":426,"o":"m 375 59 l 44 229 q 35 233 37 243 l 47 324 q 47 333 57 338 l 430 509 q 434 511 436 511 q 445 511 443 500 l 432 415 q 430 405 422 401 l 156 287 q 150 284 156 281 l 393 167 q 401 162 400 153 l 390 68 q 388 61 384 58 q 380 56 375 59 z"},"'":{"x_min":0,"x_max":147,"ha":147,"o":"m 68 492 l 82 687 q 84 699 95 699 l 185 699 q 196 699 194 687 l 159 492 q 158 487 154 484 q 150 480 145 480 l 79 480 q 74 480 70 484 q 67 487 68 492 z"},"=":{"x_min":0,"x_max":426,"ha":426,"o":""},"a":{"x_min":0,"x_max":424,"ha":424,"o":"m 322 511 l 411 511 q 416 511 419 508 q 422 504 421 499 l 361 12 q 360 7 356 4 q 353 0 348 0 l 259 0 q 254 0 251 4 q 248 7 249 12 l 253 42 q 253 46 251 46 q 249 46 247 43 q 209 -8 147 -8 q 91 -8 62 26 q 34 59 34 119 q 34 143 36 155 l 61 357 q 71 434 110 476 q 148 519 212 519 q 239 519 262 507 q 286 495 299 468 q 301 465 302 465 q 304 465 305 469 l 309 499 q 309 504 313 508 q 317 511 322 511 z m 267 163 l 290 348 q 291 352 291 361 q 291 387 278 403 q 264 419 241 419 q 214 419 196 400 q 177 380 173 348 l 150 163 q 149 159 149 151 q 149 124 163 108 q 177 92 200 92 q 226 92 244 112 q 263 131 267 163 z"},"L":{"x_min":0,"x_max":403,"ha":403,"o":"m 34 12 l 117 688 q 118 693 122 696 q 126 700 131 700 l 220 700 q 225 700 228 696 q 231 693 230 688 l 158 105 q 158 100 163 100 l 372 100 q 377 100 380 96 q 383 93 382 88 l 373 12 q 372 7 368 4 q 365 0 360 0 l 45 0 q 34 0 34 12 z"},"3":{"x_min":0,"x_max":413,"ha":413,"o":"m 386 272 q 386 247 383 218 q 376 165 366 134 q 346 66 300 29 q 254 -8 183 -8 q 111 -8 70 30 q 29 69 29 136 q 29 155 33 207 q 35 219 46 219 l 136 219 q 141 219 144 216 q 147 213 146 207 q 144 190 144 177 q 143 164 143 156 q 145 126 158 109 q 172 92 196 92 q 219 92 236 108 q 254 123 262 152 q 270 180 277 230 q 281 259 281 290 q 281 307 280 315 q 278 341 265 355 q 252 369 230 369 q 216 369 202 360 q 192 353 186 360 l 146 408 q 143 413 143 415 q 143 419 147 425 l 289 595 q 291 597 290 599 q 289 601 286 601 l 102 601 q 97 601 94 604 q 91 608 92 613 l 101 688 q 102 693 106 696 q 109 700 114 700 l 428 700 q 439 700 439 688 l 429 609 q 428 601 422 594 l 292 438 q 288 433 293 431 q 333 426 358 392 q 382 358 385 307 q 386 296 386 272 z"},";":{"x_min":0,"x_max":212,"ha":212,"o":"m 63 393 q 63 427 88 453 q 114 479 145 479 q 173 479 192 456 q 212 434 208 403 q 203 370 180 348 q 157 325 126 325 q 98 325 80 344 q 63 363 63 393 z m 10 -76 l 55 143 q 58 154 68 154 l 147 154 q 159 154 155 141 l 86 -78 q 85 -89 72 -89 l 20 -89 q 14 -89 12 -86 q 9 -82 10 -76 z"},"J":{"x_min":0,"x_max":429,"ha":429,"o":"m 16 145 q 16 155 18 173 l 27 247 q 28 252 32 256 q 36 259 41 259 l 130 259 q 135 259 138 256 q 141 252 140 247 l 131 171 q 130 166 130 157 q 130 128 146 110 q 161 92 188 92 q 219 92 240 114 q 261 136 265 171 l 329 688 q 330 693 334 696 q 337 700 342 700 l 431 700 q 436 700 439 696 q 442 693 441 688 l 378 173 q 368 92 312 42 q 257 -8 176 -8 q 102 -8 59 34 q 16 75 16 145 z"},"V":{"x_min":0,"x_max":457,"ha":457,"o":"m 148 11 l 92 687 l 92 689 q 92 700 103 700 l 201 700 q 213 700 213 689 l 234 208 q 235 205 237 205 q 239 205 240 208 l 378 689 q 379 700 391 700 l 487 700 q 499 700 495 687 l 272 11 q 269 0 258 0 l 159 0 q 148 0 148 11 z"},"\"":{"x_min":0,"x_max":297,"ha":297,"o":"m 68 489 l 82 685 q 84 697 94 697 l 179 697 q 190 697 188 685 l 154 489 q 153 484 149 480 q 145 477 140 477 l 79 477 q 74 477 70 480 q 67 484 68 489 z m 223 489 l 237 685 q 239 697 250 697 l 334 697 q 345 697 343 685 l 309 489 q 308 484 304 480 q 300 477 295 477 l 234 477 q 229 477 226 480 q 222 484 223 489 z"},"7":{"x_min":0,"x_max":381,"ha":381,"o":"m 69 13 l 301 594 q 303 600 298 600 l 167 600 q 163 600 161 595 l 157 559 q 156 554 152 550 q 149 547 144 547 l 75 547 q 70 547 67 550 q 64 554 65 559 l 82 688 q 82 693 86 696 q 90 700 95 700 l 424 700 q 429 700 432 696 q 435 693 434 688 l 424 607 q 422 599 420 593 l 186 10 q 185 6 181 3 q 177 0 172 0 l 78 0 q 65 0 69 13 z"},"S":{"x_min":0,"x_max":421,"ha":421,"o":"m 33 145 q 33 155 35 173 l 38 199 q 39 204 42 208 q 46 211 51 211 l 139 211 q 150 211 150 199 l 147 179 q 146 174 146 163 q 146 130 162 111 q 178 92 204 92 q 237 92 260 119 q 284 146 284 188 q 284 218 266 240 q 247 262 196 304 q 156 337 132 362 q 107 387 90 421 q 74 455 74 499 q 74 507 76 527 q 86 610 141 659 q 196 708 275 708 q 348 708 390 666 q 433 623 433 551 q 433 542 431 520 l 429 496 q 428 491 424 488 q 420 484 415 484 l 328 484 q 323 484 320 488 q 317 491 318 496 l 321 522 q 322 528 322 539 q 322 571 306 590 q 290 608 263 608 q 231 608 208 582 q 186 557 186 513 q 186 484 204 460 q 222 437 269 397 q 317 357 343 331 q 369 305 383 276 q 397 246 397 209 q 397 200 395 180 q 384 94 328 43 q 272 -8 192 -8 q 119 -8 76 34 q 33 76 33 145 z"},"}":{"x_min":0,"x_max":309,"ha":309,"o":"m 1 -138 q -4 -138 -7 -134 q -10 -131 -9 -126 l 1 -49 q 2 -44 6 -40 q 9 -37 14 -37 l 33 -37 q 56 -37 72 -20 q 87 -2 91 30 l 113 207 q 123 298 178 327 q 182 330 178 333 q 141 356 141 418 q 141 439 143 451 l 164 624 q 165 629 165 639 q 165 664 154 678 q 143 691 123 691 l 103 691 q 98 691 95 694 q 92 698 93 703 l 102 779 q 103 784 107 788 q 111 791 116 791 l 185 791 q 233 791 258 766 q 284 742 284 696 q 284 689 282 671 l 257 465 q 255 447 255 440 q 255 385 298 377 q 309 375 308 365 l 299 295 q 298 285 287 283 q 233 272 224 193 l 198 -18 q 191 -76 158 -107 q 125 -138 71 -138 z"},"Z":{"x_min":0,"x_max":394,"ha":394,"o":"m 6 12 l 16 92 q 18 102 21 107 l 298 594 q 300 600 296 600 l 90 600 q 85 600 82 604 q 79 607 80 612 l 89 688 q 90 693 94 696 q 97 700 102 700 l 421 700 q 426 700 429 696 q 432 693 431 688 l 421 608 q 419 598 416 593 l 139 106 q 137 100 141 100 l 347 100 q 352 100 355 96 q 358 93 357 88 l 348 12 q 347 7 344 4 q 340 0 335 0 l 16 0 q 11 0 8 4 q 5 7 6 12 z"},"x":{"x_min":0,"x_max":404,"ha":404,"o":"m 2 14 l 144 253 q 145 256 144 259 l 61 497 q 60 499 60 502 q 60 511 71 511 l 168 511 q 178 511 181 502 l 224 366 q 227 360 230 366 l 308 502 q 313 511 323 511 l 420 511 q 426 511 428 508 q 431 504 427 497 l 285 259 l 284 253 l 367 14 q 368 12 368 9 q 368 0 357 0 l 260 0 q 251 0 247 9 l 203 148 q 202 153 197 147 l 120 9 q 116 0 106 0 l 9 0 q 2 0 0 4 q -2 7 2 14 z"},")":{"x_min":0,"x_max":271,"ha":271,"o":"m 245 752 q 271 696 286 622 q 301 547 301 460 q 301 405 293 335 q 277 206 236 97 q 195 -12 141 -88 q 136 -96 126 -96 l 39 -96 q 32 -96 30 -92 q 29 -88 32 -82 q 78 2 114 108 q 151 213 166 334 q 174 397 174 467 q 174 617 133 746 l 132 750 q 132 754 136 757 q 139 760 144 760 l 232 760 q 241 760 245 752 z"},"&":{"x_min":0,"x_max":564,"ha":564,"o":"m 507 8 q 507 0 497 0 l 401 0 q 391 0 387 7 l 364 46 q 361 49 357 47 q 280 -9 190 -9 q 114 -9 72 28 q 30 64 30 133 q 30 141 32 163 q 40 229 74 276 q 109 322 165 363 q 169 365 167 370 q 135 426 124 456 q 112 486 112 513 q 112 529 113 537 q 123 615 174 662 q 225 708 299 708 q 367 708 410 668 q 452 628 452 562 q 452 490 414 440 q 377 390 313 344 q 308 341 311 337 q 326 310 342 285 l 383 214 q 385 212 387 212 q 389 212 390 214 q 420 252 444 290 q 452 301 461 295 l 522 256 q 531 250 525 240 q 481 173 442 127 q 439 123 441 120 q 465 83 505 15 q 507 11 507 8 z m 224 517 q 224 502 230 484 q 237 466 256 433 q 258 428 263 431 q 299 459 318 486 q 338 514 338 547 q 338 572 324 588 q 311 603 289 603 q 261 603 242 579 q 224 555 224 517 z m 307 130 q 311 132 309 137 l 295 160 l 279 185 l 223 275 q 220 279 216 276 q 182 249 163 221 q 144 193 144 160 q 144 130 162 110 q 179 91 212 91 q 257 91 307 130 z"},"_":{"x_min":0,"x_max":393,"ha":393,"o":"m -1 12 l 7 77 q 7 82 11 86 q 15 89 20 89 l 356 89 q 361 89 364 86 q 367 82 366 77 l 358 12 q 358 7 354 4 q 350 0 345 0 l 9 0 q 4 0 1 4 q -2 7 -1 12 z"},"v":{"x_min":0,"x_max":403,"ha":403,"o":"m 119 10 l 60 499 l 60 501 q 60 512 73 512 l 172 512 q 183 512 183 501 l 203 190 q 203 187 206 187 q 208 187 209 190 l 304 501 q 307 512 318 512 l 417 510 q 423 510 426 506 q 428 503 426 497 l 249 10 q 245 0 234 0 l 131 0 q 120 0 119 10 z"},"O":{"x_min":0,"x_max":453,"ha":453,"o":"m 42 152 q 42 160 44 182 l 85 518 q 95 604 152 656 q 210 708 294 708 q 370 708 414 666 q 458 623 458 550 q 458 540 456 518 l 415 182 q 405 96 348 44 q 290 -8 206 -8 q 130 -8 86 35 q 42 78 42 152 z m 302 177 l 345 523 q 346 528 346 537 q 346 570 328 589 q 311 608 281 608 q 248 608 226 584 q 203 561 198 523 l 156 177 q 155 171 155 160 q 155 129 172 110 q 188 92 218 92 q 251 92 274 116 q 297 139 302 177 z"},"(":{"x_min":0,"x_max":271,"ha":271,"o":"m 69 -88 q 43 -32 28 42 q 13 116 13 203 q 13 258 21 330 q 37 459 78 568 q 119 677 173 752 q 177 760 187 760 l 275 760 q 281 760 284 756 q 286 752 282 746 q 236 664 199 558 q 162 452 147 330 q 139 269 139 199 q 139 44 181 -82 l 181 -85 q 181 -96 170 -96 l 81 -96 q 72 -96 69 -88 z"},"C":{"x_min":0,"x_max":444,"ha":444,"o":"m 41 150 q 41 160 43 180 l 85 521 q 95 607 152 658 q 208 708 291 708 q 366 708 410 666 q 454 624 454 551 q 454 541 452 521 l 450 509 q 450 504 446 500 q 442 496 437 496 l 347 492 q 335 492 336 504 l 339 529 q 340 534 340 543 q 340 573 324 590 q 307 608 278 608 q 247 608 226 586 q 204 564 199 529 l 155 171 q 154 166 154 157 q 154 127 170 110 q 187 92 215 92 q 247 92 269 114 q 291 136 296 171 l 299 196 q 299 201 303 204 q 307 208 312 208 l 401 204 q 412 204 412 192 l 410 180 q 400 95 343 44 q 286 -8 203 -8 q 128 -8 84 34 q 41 77 41 150 z"},"W":{"x_min":0,"x_max":645,"ha":645,"o":"m 134 11 l 88 687 l 88 689 q 88 700 100 700 l 193 700 q 204 700 204 689 l 221 272 q 221 269 223 269 q 225 269 226 272 l 339 689 q 342 700 353 700 l 430 700 q 442 700 442 689 l 456 272 q 457 269 459 269 q 461 269 462 272 l 574 689 q 577 700 588 700 l 679 700 q 684 700 686 696 q 689 693 688 687 l 482 11 q 479 0 468 0 l 385 0 q 374 0 374 11 l 361 436 q 361 440 359 440 q 357 440 355 436 l 243 11 q 240 0 229 0 l 146 0 q 134 0 134 11 z"},"A":{"x_min":0,"x_max":443,"ha":443,"o":"m 297 11 l 292 116 q 292 121 286 121 l 145 121 q 140 121 138 116 l 107 11 q 104 0 93 0 l 5 0 q -8 0 -4 13 l 222 689 q 225 700 236 700 l 339 700 q 350 700 350 689 l 411 13 l 411 11 q 411 0 399 0 l 308 0 q 297 0 297 11 z m 173 212 l 280 212 q 286 212 286 217 l 268 533 q 268 536 266 536 q 264 536 262 533 l 168 217 q 167 212 173 212 z"},"f":{"x_min":0,"x_max":282,"ha":282,"o":"m 299 499 l 292 440 q 291 435 288 432 q 284 428 279 428 l 218 428 q 216 428 214 426 q 213 425 213 423 l 162 12 q 162 7 158 4 q 154 0 149 0 l 61 0 q 56 0 53 4 q 50 7 51 12 l 101 423 q 103 428 97 428 l 66 428 q 61 428 58 432 q 55 435 56 440 l 63 499 q 64 504 68 508 q 71 511 76 511 l 107 511 q 111 511 113 516 l 116 541 q 127 631 171 668 q 215 705 303 704 l 311 704 q 316 704 319 700 q 322 697 321 692 l 310 624 q 310 619 306 616 q 302 612 297 612 l 292 612 q 263 611 247 592 q 231 574 227 536 l 224 516 q 224 511 229 511 l 289 511 q 294 511 297 508 q 300 504 299 499 z"},"Q":{"x_min":0,"x_max":441,"ha":441,"o":"m 446 545 q 446 535 444 513 l 404 187 q 396 118 358 68 q 319 19 261 1 q 257 0 257 -4 l 246 -92 q 245 -97 242 -100 q 238 -104 233 -104 l 143 -104 q 138 -104 135 -100 q 132 -97 133 -92 l 144 -4 q 144 0 141 1 q 94 17 68 58 q 42 99 42 156 q 42 165 44 187 l 84 513 q 95 600 151 654 q 207 708 288 708 q 361 708 404 664 q 446 619 446 545 z m 333 525 q 334 530 334 540 q 334 571 318 590 q 302 608 275 608 q 246 608 224 585 q 202 562 198 525 l 155 175 q 154 170 154 160 q 154 129 170 110 q 185 92 212 92 q 243 92 264 115 q 285 138 290 175 z"},"w":{"x_min":0,"x_max":575,"ha":575,"o":"m 104 11 l 60 499 l 60 501 q 60 512 73 512 l 158 512 q 169 512 169 501 l 181 190 q 182 187 184 187 q 186 187 187 190 l 279 501 q 282 512 293 512 l 368 512 q 380 512 380 501 l 396 189 q 396 186 398 186 q 401 186 402 189 l 491 501 q 494 512 505 512 l 589 510 q 601 510 597 497 l 434 11 q 431 0 420 0 l 333 0 q 321 0 321 11 l 306 303 q 305 306 304 306 q 302 306 300 303 l 214 11 q 211 0 200 0 l 115 0 q 110 0 107 3 q 104 6 104 11 z"},"-":{"x_min":0,"x_max":315,"ha":315,"o":"m 39 263 l 48 339 q 49 344 53 348 q 57 351 62 351 l 301 351 q 306 351 309 348 q 312 344 311 339 l 302 263 q 301 258 298 254 q 294 251 289 251 l 49 251 q 44 251 41 254 q 38 258 39 263 z"},"E":{"x_min":0,"x_max":422,"ha":422,"o":"m 434 600 l 224 600 q 219 600 219 595 l 195 406 q 195 401 200 401 l 324 401 q 329 401 332 398 q 335 394 334 389 l 324 312 q 324 307 320 304 q 316 300 311 300 l 187 300 q 182 300 182 295 l 158 105 q 158 100 163 100 l 372 100 q 377 100 380 96 q 383 93 382 88 l 373 12 q 372 7 368 4 q 365 0 360 0 l 45 0 q 34 0 34 12 l 117 688 q 118 693 122 696 q 126 700 131 700 l 446 700 q 451 700 454 696 q 457 693 456 688 l 447 612 q 446 607 442 604 q 439 600 434 600 z"},"s":{"x_min":0,"x_max":386,"ha":386,"o":"m 25 116 q 25 129 26 135 l 27 142 q 28 147 32 150 q 35 154 40 154 l 124 154 q 129 154 132 150 q 135 147 134 142 l 133 137 q 130 113 146 97 q 162 81 188 81 q 215 81 232 98 q 250 116 250 142 q 250 164 233 177 q 216 190 195 199 q 174 208 167 211 q 119 231 88 260 q 58 289 58 344 q 58 424 108 470 q 158 517 238 517 q 307 517 346 482 q 385 448 385 388 q 385 380 383 364 q 382 359 378 356 q 375 352 370 352 l 289 352 q 278 352 278 364 l 279 370 q 282 394 268 410 q 255 426 230 426 q 202 426 185 406 q 168 387 168 363 q 168 339 186 326 q 203 314 245 295 q 280 280 304 265 q 328 250 346 224 q 364 197 364 159 q 364 84 312 39 q 260 -6 177 -6 q 106 -6 66 27 q 25 60 25 116 z"},">":{"x_min":0,"x_max":426,"ha":426,"o":"m 22 57 q 13 57 15 68 l 26 153 q 26 162 36 167 l 301 281 q 308 284 302 287 l 65 401 q 56 405 58 415 l 68 500 q 69 507 74 510 q 78 512 83 509 l 414 338 q 422 333 421 324 l 411 243 q 409 233 401 229 l 28 59 q 24 57 22 57 z"},"l":{"x_min":0,"x_max":193,"ha":193,"o":"m 23 12 l 106 688 q 107 693 110 696 q 114 700 119 700 l 208 700 q 213 700 216 696 q 219 693 218 688 l 135 12 q 134 7 130 4 q 127 0 122 0 l 33 0 q 28 0 25 4 q 22 7 23 12 z"},"8":{"x_min":0,"x_max":421,"ha":421,"o":"m 340 364 q 371 346 382 306 q 391 276 391 238 q 391 213 389 200 q 383 148 362 107 q 336 53 291 22 q 246 -8 189 -8 q 133 -8 95 22 q 57 52 45 106 q 40 127 40 160 q 40 186 42 200 q 50 259 72 301 q 91 341 131 363 q 135 366 132 369 q 102 390 89 427 q 80 455 80 490 q 80 512 82 523 q 88 580 113 620 q 138 663 182 688 q 225 712 278 712 q 330 712 368 688 q 405 665 420 621 q 431 591 431 555 q 431 545 429 523 q 422 468 398 429 q 376 392 341 371 q 336 367 340 364 z m 204 559 q 194 541 191 513 q 190 506 190 492 q 190 471 194 456 q 198 435 210 423 q 222 411 241 411 q 281 411 302 459 q 314 488 316 513 q 318 529 318 536 q 318 553 313 568 q 309 589 296 600 q 284 612 265 612 q 230 612 210 573 z m 278 206 q 281 224 281 239 q 281 256 278 271 q 275 295 262 308 q 250 322 230 322 q 209 322 194 308 q 178 294 169 268 q 157 240 154 208 q 150 181 152 151 q 154 123 167 108 q 180 92 201 92 q 224 92 242 108 q 259 125 267 153 q 275 179 278 206 z"},"\\":{"x_min":0,"x_max":375,"ha":375,"o":"m 337 12 q 337 0 326 0 l 237 0 q 228 0 225 10 l 109 686 l 109 688 q 109 693 112 696 q 116 700 121 700 l 210 700 q 219 700 221 690 l 337 14 z"},"e":{"x_min":0,"x_max":413,"ha":413,"o":"m 375 213 l 161 213 q 156 213 156 208 l 150 163 l 149 151 q 149 125 163 108 q 177 92 200 92 q 222 92 240 106 q 257 121 266 144 q 270 154 280 154 l 366 150 q 371 150 374 146 q 376 143 375 137 q 360 67 312 30 q 264 -8 188 -8 q 115 -8 74 28 q 34 65 34 129 q 34 136 36 154 l 61 357 q 70 430 122 474 q 174 519 253 519 q 326 519 366 482 q 406 444 406 381 q 406 365 405 357 l 388 225 q 388 220 384 216 q 380 213 375 213 z m 173 348 l 167 303 q 167 298 171 298 l 281 298 q 286 298 286 303 l 292 348 l 293 360 q 293 386 279 402 q 265 419 241 419 q 215 419 196 399 q 177 379 173 348 z"},"b":{"x_min":0,"x_max":424,"ha":424,"o":"m 413 391 q 413 369 411 357 l 387 154 q 378 80 336 36 q 295 -8 230 -8 q 178 -8 147 27 q 145 29 143 28 q 141 27 141 24 l 139 12 q 138 7 134 4 q 131 0 126 0 l 37 0 q 32 0 29 4 q 26 7 27 12 l 110 688 q 111 693 114 696 q 118 700 123 700 l 212 700 q 217 700 220 696 q 223 693 222 688 l 197 486 q 197 483 200 482 q 202 482 206 486 q 244 519 295 519 q 351 519 382 486 q 413 452 413 391 z m 300 360 q 300 386 286 402 q 271 419 247 419 q 224 419 206 404 q 189 388 182 362 l 156 149 q 157 123 170 108 q 184 92 207 92 q 234 92 253 112 q 272 131 276 163 l 299 348 z"},"%":{"x_min":0,"x_max":748,"ha":748,"o":"m 100 538 q 100 583 123 622 q 146 662 184 686 q 223 709 266 709 q 320 709 356 672 q 392 634 392 578 q 392 532 370 492 q 347 451 309 428 q 271 404 228 404 q 173 404 136 442 q 100 481 100 538 z m 139 14 l 576 692 q 580 700 591 700 l 648 700 q 654 700 656 696 q 657 692 654 686 l 217 8 q 213 0 202 0 l 146 0 q 139 0 138 4 q 136 8 139 14 z m 330 569 q 330 602 310 624 q 289 647 258 647 q 219 647 190 617 q 162 587 162 545 q 162 511 183 488 q 204 466 236 466 q 274 466 302 497 q 330 528 330 569 z m 404 123 q 404 169 426 208 q 449 248 487 272 q 525 296 568 296 q 623 296 659 258 q 695 220 695 163 q 695 117 672 78 q 649 38 611 14 q 573 -9 530 -9 q 475 -9 440 28 q 404 66 404 123 z m 634 156 q 634 189 613 212 q 592 234 560 234 q 522 234 494 204 q 465 174 465 132 q 465 98 486 76 q 507 53 538 53 q 576 53 605 84 q 634 115 634 156 z"},"m":{"x_min":0,"x_max":645,"ha":645,"o":"m 631 388 q 631 368 628 347 l 586 12 q 586 7 582 4 q 578 0 573 0 l 485 0 q 480 0 477 4 q 474 7 475 12 l 515 339 q 516 346 516 357 q 516 387 504 403 q 492 419 470 419 q 443 419 425 398 q 407 377 403 340 l 362 12 q 361 7 358 4 q 354 0 349 0 l 261 0 q 256 0 253 4 q 250 7 251 12 l 291 339 q 292 345 292 357 q 292 387 280 403 q 267 419 246 419 q 219 419 201 398 q 183 377 179 340 l 138 12 q 137 7 134 4 q 130 0 125 0 l 37 0 q 32 0 29 4 q 26 7 27 12 l 86 499 q 87 504 91 508 q 95 511 100 511 l 188 511 q 193 511 196 508 q 199 504 198 499 l 196 483 q 196 480 198 479 q 199 478 202 481 q 224 501 249 510 q 274 519 297 519 q 370 519 395 456 q 398 452 404 459 q 428 491 460 505 q 491 519 521 519 q 576 519 604 485 q 631 451 631 388 z"},"#":{"x_min":0,"x_max":588,"ha":588,"o":"m 568 413 l 509 413 q 507 413 504 412 q 502 410 502 408 l 471 288 q 471 283 474 283 l 519 283 q 524 283 527 280 q 530 276 529 271 l 520 196 q 519 191 516 188 q 512 184 507 184 l 447 184 q 445 184 443 182 q 441 181 441 179 l 403 34 q 400 23 389 23 l 300 24 q 288 24 291 37 l 328 179 q 330 184 325 184 l 223 184 q 217 184 217 179 l 179 34 q 176 23 165 23 l 76 24 q 64 24 67 37 l 104 179 q 106 184 101 184 l 56 184 q 45 184 45 196 l 55 271 q 55 276 59 280 q 63 283 68 283 l 128 283 q 134 283 134 288 l 166 408 q 166 413 162 413 l 117 413 q 112 413 109 416 q 106 420 107 425 l 116 501 q 117 506 120 510 q 124 513 129 513 l 189 513 q 194 513 196 518 l 234 663 q 237 674 248 674 l 337 673 q 349 673 346 660 l 308 518 q 308 513 311 513 l 413 513 q 418 513 420 518 l 458 663 q 461 674 472 674 l 561 673 q 573 673 570 660 l 532 518 q 532 513 535 513 l 580 513 q 585 513 588 510 q 591 506 590 501 l 581 425 q 580 420 576 416 q 573 413 568 413 z m 358 288 l 390 408 q 390 413 386 413 l 284 413 q 282 413 280 412 q 278 410 278 408 l 247 288 q 245 283 250 283 l 352 283 q 358 283 358 288 z"},",":{"x_min":0,"x_max":193,"ha":193,"o":"m 3 -78 l 56 146 q 59 157 69 157 l 146 157 q 158 157 154 144 l 79 -80 q 78 -85 74 -88 q 70 -91 65 -91 l 13 -91 q 7 -91 4 -88 q 2 -84 3 -78 z"},"n":{"x_min":0,"x_max":425,"ha":425,"o":"m 412 391 q 412 373 409 352 l 367 12 q 366 7 362 4 q 359 0 354 0 l 265 0 q 260 0 257 4 q 254 7 255 12 l 295 343 q 296 349 296 361 q 296 389 284 404 q 271 419 248 419 q 220 419 202 398 q 184 378 179 340 l 139 12 q 138 7 134 4 q 131 0 126 0 l 37 0 q 32 0 29 4 q 26 7 27 12 l 86 499 q 87 504 91 508 q 95 511 100 511 l 189 511 q 194 511 197 508 q 200 504 199 499 l 197 479 q 196 476 198 476 q 201 475 204 479 q 241 519 301 519 q 356 519 384 486 q 412 453 412 391 z"},"h":{"x_min":0,"x_max":425,"ha":425,"o":"m 412 391 q 412 373 409 352 l 367 12 q 366 7 362 4 q 359 0 354 0 l 265 0 q 260 0 257 4 q 254 7 255 12 l 295 343 q 296 349 296 361 q 296 389 284 404 q 271 419 248 419 q 220 419 202 398 q 184 378 179 340 l 139 12 q 138 7 134 4 q 131 0 126 0 l 37 0 q 32 0 29 4 q 26 7 27 12 l 110 688 q 111 693 114 696 q 118 700 123 700 l 212 700 q 217 700 220 696 q 223 693 222 688 l 197 479 q 196 476 198 476 q 201 475 204 479 q 241 519 301 519 q 356 519 384 486 q 412 453 412 391 z"},"z":{"x_min":0,"x_max":357,"ha":357,"o":"m 5 12 l 16 97 q 16 105 22 112 l 224 400 q 227 406 222 406 l 69 406 q 64 406 61 410 q 58 413 59 418 l 69 499 q 70 504 74 508 q 77 511 82 511 l 362 511 q 373 511 373 499 l 362 414 q 362 407 356 399 l 149 111 q 146 105 152 105 l 317 105 q 328 105 328 93 l 318 12 q 317 7 314 4 q 310 0 305 0 l 16 0 q 11 0 8 4 q 4 7 5 12 z"},"B":{"x_min":0,"x_max":448,"ha":448,"o":"m 215 0 l 45 0 q 34 0 34 12 l 117 688 q 118 693 122 696 q 126 700 131 700 l 284 700 q 367 700 414 661 q 460 622 460 545 q 460 534 458 512 q 445 409 369 365 q 363 362 366 359 q 428 313 428 225 q 428 216 426 194 q 416 101 358 50 q 300 0 215 0 z m 219 595 l 196 409 q 194 404 200 404 l 249 404 q 289 404 314 429 q 340 454 346 500 q 347 507 347 520 q 347 558 328 579 q 309 600 273 600 l 224 600 q 219 600 219 595 z m 316 208 q 317 216 317 231 q 317 272 298 296 q 280 319 246 319 l 190 319 q 184 319 184 314 l 159 106 q 157 101 163 101 l 219 101 q 258 101 284 129 q 309 157 316 208 z"},"K":{"x_min":0,"x_max":463,"ha":463,"o":"m 34 12 l 117 688 q 118 693 122 696 q 126 700 131 700 l 220 700 q 225 700 228 696 q 231 693 230 688 l 196 412 q 195 408 198 408 q 200 407 202 410 l 382 691 q 387 700 397 700 l 493 700 q 502 700 502 694 q 502 691 499 686 l 319 405 q 318 401 318 399 l 428 14 l 428 11 q 428 0 417 0 l 321 0 q 311 0 309 9 l 230 298 q 229 301 227 300 q 225 300 223 298 l 176 231 q 175 230 174 228 q 173 227 173 225 l 147 12 q 146 7 142 4 q 139 0 134 0 l 45 0 q 34 0 34 12 z"},"R":{"x_min":0,"x_max":448,"ha":448,"o":"m 290 10 l 243 297 q 243 298 242 300 q 241 301 239 301 l 187 301 q 182 301 182 296 l 147 12 q 146 7 142 4 q 139 0 134 0 l 45 0 q 34 0 34 12 l 117 688 q 118 693 122 696 q 126 700 131 700 l 313 700 q 383 700 424 654 q 464 607 464 530 q 464 520 462 496 q 454 434 425 389 q 396 344 352 321 q 348 320 348 315 l 406 14 l 406 10 q 406 0 395 0 l 302 0 q 292 0 290 10 z m 219 595 l 194 396 q 194 391 198 391 l 258 391 q 297 391 324 426 q 350 460 350 517 q 350 556 332 578 q 314 600 283 600 l 224 600 q 219 600 219 595 z"},"T":{"x_min":0,"x_max":439,"ha":439,"o":"m 477 688 l 468 612 q 467 607 464 604 q 460 600 455 600 l 332 600 q 328 600 326 595 l 255 12 q 254 7 250 4 q 247 0 242 0 l 152 0 q 147 0 144 4 q 141 7 142 12 l 214 595 q 214 600 209 600 l 93 600 q 88 600 85 604 q 82 607 83 612 l 92 688 q 93 693 96 696 q 100 700 105 700 l 467 700 q 472 700 475 696 q 478 693 477 688 z"},"P":{"x_min":0,"x_max":443,"ha":443,"o":"m 462 532 q 462 508 460 495 q 450 405 396 350 q 343 295 268 295 l 186 295 q 182 295 180 290 l 146 12 q 145 7 142 4 q 138 0 133 0 l 44 0 q 33 0 33 12 l 117 689 q 117 694 121 698 q 125 701 130 701 l 312 701 q 381 701 422 654 q 462 608 462 532 z m 348 492 q 349 500 349 515 q 349 555 331 578 q 313 601 281 601 l 223 601 q 218 601 218 596 l 193 391 q 191 386 197 386 l 255 386 q 291 386 316 414 q 341 443 348 492 z"},"|":{"x_min":0,"x_max":166,"ha":166,"o":"m -2 -68 l 99 748 q 99 753 103 756 q 107 760 112 760 l 201 760 q 206 760 209 756 q 212 753 211 748 l 111 -68 q 110 -73 106 -76 q 103 -80 98 -80 l 9 -80 q -2 -80 -2 -68 z"},"t":{"x_min":0,"x_max":274,"ha":274,"o":"m 274 429 l 214 429 q 210 429 208 424 l 176 162 q 175 155 175 144 q 175 120 186 110 q 197 100 219 101 l 226 101 q 231 101 234 98 q 237 94 236 89 l 227 12 q 226 7 222 4 q 218 0 213 0 l 180 0 q 121 0 90 20 q 60 39 60 92 q 60 99 62 119 l 100 424 q 100 429 95 429 l 61 429 q 56 429 53 432 q 50 436 51 441 l 58 499 q 59 504 62 508 q 66 511 71 511 l 105 511 q 111 511 111 516 l 124 626 q 125 631 129 634 q 133 638 138 638 l 223 638 q 228 638 231 634 q 234 631 233 626 l 220 516 q 218 511 224 511 l 284 511 q 289 511 292 508 q 295 504 294 499 l 287 441 q 286 436 282 432 q 279 429 274 429 z"},"M":{"x_min":0,"x_max":522,"ha":522,"o":"m 438 700 l 527 700 q 532 700 535 696 q 538 693 537 688 l 454 12 q 454 7 450 4 q 446 0 441 0 l 352 0 q 347 0 344 4 q 341 7 342 12 l 400 484 q 401 488 398 488 q 396 488 394 485 l 290 327 q 285 319 281 319 q 279 319 276 321 q 274 323 273 327 l 208 485 q 207 488 205 488 q 203 488 202 484 l 144 12 q 143 7 140 4 q 136 0 131 0 l 42 0 q 37 0 34 4 q 31 7 32 12 l 115 688 q 115 693 119 696 q 123 700 128 700 l 217 700 q 227 700 230 692 l 304 521 q 306 516 309 521 l 423 692 q 428 700 438 700 z"},"g":{"x_min":0,"x_max":418,"ha":418,"o":"m 322 511 l 411 511 q 416 511 419 508 q 422 504 421 499 l 362 19 q 349 -89 294 -148 q 239 -206 117 -206 q 96 -206 85 -205 q 75 -204 75 -192 l 85 -115 q 87 -102 99 -104 q 154 -105 185 -90 q 216 -75 230 -46 q 245 -17 251 30 l 252 41 q 253 44 251 44 q 249 45 247 42 q 209 -1 150 -1 q 93 -1 64 32 q 35 66 35 127 q 35 137 37 161 l 61 357 q 71 434 110 476 q 150 519 214 519 q 240 519 263 509 q 286 499 300 476 q 301 473 303 474 q 305 474 306 477 l 309 499 q 309 504 313 508 q 317 511 322 511 z m 268 169 l 290 348 q 291 352 291 361 q 291 387 278 403 q 264 419 241 419 q 215 419 196 399 q 177 379 173 348 l 151 169 q 150 165 150 157 q 150 131 164 115 q 178 99 201 99 q 227 99 246 118 q 264 138 268 169 z"},"j":{"x_min":0,"x_max":204,"ha":204,"o":"m 92 642 q 92 677 114 700 q 137 723 170 723 q 197 723 214 706 q 230 690 230 664 q 230 629 208 605 q 185 581 153 581 q 125 581 108 598 q 92 615 92 642 z m -89 -193 l -79 -118 q -79 -113 -76 -110 q -72 -106 -66 -106 q -24 -105 -3 -82 q 18 -59 23 -16 l 86 499 q 87 504 91 508 q 95 511 100 511 l 189 511 q 194 511 197 508 q 200 504 199 499 l 136 -16 q 127 -84 110 -124 q 92 -163 48 -184 q 4 -206 -79 -205 q -84 -205 -87 -202 q -90 -198 -89 -193 z"},"i":{"x_min":0,"x_max":208,"ha":208,"o":"m 95 642 q 95 677 118 700 q 140 723 173 723 q 200 723 216 706 q 233 690 233 664 q 233 629 210 605 q 188 581 156 581 q 128 581 112 598 q 95 615 95 642 z m 31 12 l 90 499 q 91 504 94 508 q 98 511 103 511 l 193 511 q 198 511 201 508 q 204 504 203 499 l 143 12 q 142 7 138 4 q 135 0 130 0 l 41 0 q 36 0 33 4 q 30 7 31 12 z"},"y":{"x_min":0,"x_max":391,"ha":391,"o":"m -9 -187 l -1 -115 q 0 -110 4 -106 q 7 -103 11 -103 q 43 -102 62 -94 q 82 -87 96 -66 q 109 -44 119 -3 q 119 -2 118 0 q 118 1 119 3 l 57 499 q 57 512 70 512 l 165 512 q 176 512 176 501 l 195 170 q 195 167 197 167 q 199 167 200 170 l 298 501 q 301 512 312 512 l 408 510 q 421 510 417 497 l 223 -28 q 195 -99 170 -134 q 146 -169 108 -184 q 69 -199 0 -199 l -5 -199 q -7 -199 -8 -196 q -10 -192 -9 -187 z"},"@":{"x_min":0,"x_max":736,"ha":736,"o":"m 727 395 q 727 351 715 301 q 690 204 634 150 q 578 95 505 95 q 443 95 415 135 q 412 138 408 134 q 391 113 368 104 q 346 94 325 94 q 280 94 255 118 q 230 143 230 184 q 230 191 232 207 q 235 224 243 254 l 250 283 q 256 315 266 347 q 297 461 393 461 q 405 461 419 456 q 433 451 443 440 q 449 436 450 442 l 450 444 q 453 455 464 455 l 519 455 q 531 455 528 442 l 482 258 q 478 242 478 225 q 478 198 491 184 q 504 170 526 170 q 562 170 590 206 q 618 243 633 303 q 643 343 643 382 q 643 467 592 517 q 540 567 452 567 q 382 567 316 530 q 250 492 202 426 q 153 359 133 275 q 122 232 122 190 q 122 129 146 86 q 171 42 212 20 q 254 -3 303 -3 q 377 -3 439 39 q 443 42 448 42 q 452 42 455 36 l 476 -6 q 477 -8 477 -12 q 477 -19 470 -23 q 432 -48 384 -63 q 335 -78 280 -78 q 210 -78 156 -48 q 102 -18 72 38 q 42 94 42 171 q 42 225 56 280 q 81 384 144 466 q 206 549 292 595 q 378 641 469 641 q 547 641 606 611 q 664 581 696 525 q 727 469 727 395 z m 395 212 l 400 233 l 402 243 l 422 326 l 426 343 q 428 349 428 360 q 428 375 420 384 q 411 393 396 393 q 377 393 362 379 q 347 365 342 343 q 341 334 336 322 q 334 313 331 302 q 328 291 325 276 l 309 212 q 308 207 308 198 q 308 181 316 171 q 324 161 340 161 q 359 161 374 175 q 388 189 395 212 z"},".":{"x_min":0,"x_max":205,"ha":205,"o":""},"p":{"x_min":0,"x_max":428,"ha":428,"o":"m 417 390 q 417 379 415 357 l 391 155 q 381 78 340 35 q 298 -8 234 -8 q 212 -8 190 0 q 167 9 151 28 q 149 30 147 29 q 145 28 145 25 l 120 -177 q 119 -182 116 -186 q 112 -189 107 -189 l 18 -189 q 7 -189 7 -177 l 90 499 q 91 504 94 508 q 98 511 103 511 l 193 511 q 198 511 201 508 q 204 504 203 499 l 201 487 q 201 484 204 484 q 206 483 210 487 q 247 519 298 519 q 356 519 386 484 q 417 450 417 390 z m 304 360 q 304 387 290 404 q 275 420 251 420 q 225 420 207 400 q 189 380 184 348 l 162 163 q 161 158 161 149 q 161 123 174 108 q 188 92 211 92 q 238 92 257 112 q 276 131 280 163 l 303 348 z"},"X":{"x_min":0,"x_max":447,"ha":447,"o":"m 12 14 l 186 347 q 188 350 187 353 l 95 686 l 94 690 q 94 700 105 700 l 197 700 q 208 700 209 690 l 260 473 q 260 470 262 470 q 265 470 266 473 l 369 690 q 374 700 383 700 l 474 700 q 481 700 482 696 q 484 692 481 686 l 307 353 l 306 347 l 398 14 l 399 10 q 399 0 388 0 l 298 0 q 288 0 285 10 l 235 226 q 235 229 233 229 q 231 229 230 226 l 125 10 q 122 0 111 0 l 19 0 q 13 0 11 4 q 9 8 12 14 z"},"*":{"x_min":0,"x_max":350,"ha":350,"o":"m 173 407 l 185 502 q 185 508 179 505 l 95 457 q 91 455 89 455 q 83 455 80 462 l 64 501 q 63 503 63 506 q 63 512 70 517 l 159 567 q 164 570 160 574 l 83 623 q 76 629 81 639 l 107 680 q 110 685 115 686 q 120 688 124 685 l 195 636 q 200 632 202 639 l 213 734 q 214 739 218 742 q 221 746 226 746 l 269 746 q 274 746 277 742 q 280 739 279 734 l 267 639 q 266 636 268 635 q 270 634 272 636 l 356 685 q 360 687 362 687 q 369 687 372 680 l 387 639 q 388 638 388 635 q 388 627 381 623 l 294 574 q 291 573 291 571 q 291 569 293 567 l 368 517 q 377 510 371 501 l 345 460 q 341 455 336 454 q 332 453 328 456 l 256 505 q 254 507 252 506 q 250 505 250 502 l 239 407 q 238 402 234 398 q 231 395 226 395 l 183 395 q 178 395 175 398 q 172 402 173 407 z"},"Y":{"x_min":0,"x_max":443,"ha":443,"o":"m 147 13 l 181 286 l 180 292 l 94 686 l 94 689 q 94 694 97 697 q 100 700 105 700 l 198 700 q 209 700 211 690 l 252 433 q 252 430 254 430 q 257 430 258 433 l 362 690 q 367 700 377 700 l 470 700 q 476 700 478 696 q 481 693 478 686 l 295 292 q 293 286 293 286 l 260 13 q 259 8 256 4 q 252 1 247 1 l 157 1 q 152 1 149 4 q 146 8 147 13 z"},"c":{"x_min":0,"x_max":410,"ha":410,"o":"m 34 129 q 34 137 36 155 l 61 357 q 70 430 122 474 q 174 519 253 519 q 326 519 367 482 q 408 445 408 385 q 408 372 407 365 l 405 351 q 404 346 400 342 q 397 339 392 339 l 302 335 q 291 335 292 347 l 293 357 q 296 382 282 400 q 267 419 241 419 q 215 419 196 399 q 177 379 173 348 l 150 163 l 149 151 q 149 125 163 108 q 177 92 200 92 q 226 92 246 110 q 265 129 268 155 l 270 165 q 270 170 274 174 q 278 177 283 177 l 372 176 q 377 176 380 172 q 383 169 382 164 l 380 146 q 372 77 320 34 q 268 -8 188 -8 q 115 -8 74 28 q 34 65 34 129 z"},"!":{"x_min":0,"x_max":261,"ha":261,"o":"m 96 248 l 139 688 q 140 693 144 696 q 147 700 152 700 l 241 700 q 246 700 249 696 q 252 693 251 688 l 187 248 q 186 243 182 240 q 179 236 174 236 l 107 236 q 96 236 96 248 z m 51 63 q 51 97 74 120 q 96 143 129 143 q 156 143 172 126 q 189 110 189 84 q 189 49 166 26 q 144 2 112 2 q 84 2 68 19 q 51 36 51 63 z"},"/":{"x_min":0,"x_max":375,"ha":375,"o":"m 3 14 l 285 690 q 288 700 298 700 l 388 700 q 393 700 396 696 q 398 692 396 686 l 114 10 q 109 0 100 0 l 11 0 q 5 0 3 4 q 1 8 3 14 z"},"[":{"x_min":0,"x_max":320,"ha":320,"o":"m -9 -126 l 102 779 q 103 784 107 788 q 111 791 116 791 l 296 791 q 301 791 304 788 q 307 784 306 779 l 297 703 q 296 698 292 694 q 289 691 284 691 l 209 691 q 204 691 204 686 l 115 -32 q 115 -37 120 -37 l 194 -37 q 199 -37 202 -40 q 205 -44 204 -49 l 195 -126 q 194 -131 190 -134 q 187 -138 182 -138 l 1 -138 q -4 -138 -7 -134 q -10 -131 -9 -126 z"},"6":{"x_min":0,"x_max":416,"ha":416,"o":"m 396 216 q 391 176 386 151 q 372 75 321 34 q 270 -8 194 -8 q 122 -8 82 30 q 42 69 43 144 q 42 150 42 164 q 42 185 45 207 l 84 532 q 94 613 148 660 q 201 708 280 708 q 347 708 387 668 q 427 628 427 560 q 427 552 425 532 l 422 507 q 421 502 418 498 q 414 495 409 495 l 320 495 q 315 495 312 498 q 309 502 310 507 l 312 526 q 313 531 313 541 q 313 570 300 588 q 287 605 267 605 q 239 605 220 583 q 201 561 197 526 l 184 423 q 183 420 185 419 q 187 418 189 420 q 221 447 262 447 q 329 447 366 403 q 402 359 400 286 q 400 251 396 216 z m 284 224 q 287 256 287 295 q 282 353 237 353 q 214 353 197 338 q 180 322 172 292 q 165 261 159 224 q 155 185 154 157 q 156 125 168 108 q 181 91 205 91 q 229 91 247 109 q 265 127 273 160 q 278 184 284 224 z"},"r":{"x_min":0,"x_max":304,"ha":304,"o":"m 331 507 q 338 501 335 492 l 308 399 q 305 387 293 392 q 279 396 269 396 q 257 396 247 393 q 220 389 200 362 q 179 334 174 296 l 139 13 q 138 8 134 4 q 131 1 126 1 l 37 1 q 32 1 29 4 q 26 8 27 13 l 86 499 q 87 504 91 508 q 95 511 100 511 l 189 511 q 194 511 197 508 q 200 504 199 499 l 193 453 q 193 449 195 448 q 197 448 198 452 q 232 517 291 517 q 318 517 331 507 z"},"2":{"x_min":0,"x_max":413,"ha":413,"o":"m 161 100 l 373 100 q 378 100 381 96 q 384 93 383 88 l 374 12 q 373 7 370 4 q 366 0 361 0 l 22 0 q 17 0 14 4 q 11 7 12 12 l 22 92 q 24 101 28 107 l 60 145 q 180 288 234 363 q 272 418 292 461 q 311 504 311 540 q 311 572 297 590 q 283 608 258 608 q 230 608 211 586 q 192 563 188 526 l 183 487 q 182 482 178 478 q 175 475 170 475 l 79 475 q 74 475 71 478 q 68 482 69 487 l 74 530 q 88 610 143 659 q 198 708 275 708 q 344 708 384 666 q 425 623 425 552 q 425 543 423 521 q 417 471 394 422 q 372 373 329 317 q 297 273 216 175 l 159 106 q 157 104 158 102 q 158 100 161 100 z"},"{":{"x_min":0,"x_max":309,"ha":309,"o":"m 67 -43 q 67 -36 69 -18 l 95 193 q 96 201 96 216 q 96 276 52 283 q 42 285 43 295 l 51 364 q 53 375 64 377 q 118 386 128 465 l 153 671 q 161 730 193 760 q 225 791 279 791 l 348 791 q 359 791 359 779 l 349 703 q 348 698 344 694 q 341 691 336 691 l 317 691 q 295 691 280 673 q 264 655 260 624 l 239 451 q 227 360 173 333 q 168 330 172 327 q 211 303 211 239 q 211 229 209 207 l 187 30 q 186 25 186 15 q 186 -10 197 -24 q 208 -37 227 -37 l 247 -37 q 252 -37 255 -40 q 258 -44 257 -49 l 247 -126 q 247 -131 243 -134 q 239 -138 234 -138 l 165 -138 q 117 -138 92 -114 q 67 -90 67 -43 z"},"9":{"x_min":0,"x_max":411,"ha":411,"o":"m 374 168 q 364 87 310 40 q 256 -8 177 -8 q 110 -8 70 32 q 30 72 30 140 q 30 148 32 168 l 35 193 q 36 198 40 202 q 43 205 48 205 l 138 205 q 143 205 146 202 q 149 198 148 193 l 146 174 q 145 169 145 158 q 145 130 158 112 q 170 95 190 95 q 218 95 237 117 q 256 139 261 174 l 273 276 q 274 279 272 280 q 270 281 268 279 q 237 253 195 253 q 128 253 92 297 q 56 341 58 414 q 56 445 61 484 q 64 507 72 549 q 86 625 137 666 q 188 708 264 708 q 336 708 376 670 q 416 631 416 556 q 416 517 413 493 z m 298 476 q 302 515 303 543 q 302 575 290 592 q 277 609 253 609 q 204 609 185 540 q 178 507 175 476 q 170 439 171 405 q 172 377 185 362 q 198 347 221 347 q 244 347 261 362 q 278 378 286 408 q 295 447 298 476 z"}," ":{"x_min":0,"x_max":194,"ha":194,"o":""},"I":{"x_min":0,"x_max":218,"ha":218,"o":"m 34 12 l 117 688 q 118 693 122 696 q 126 700 131 700 l 220 700 q 225 700 228 696 q 231 693 230 688 l 147 12 q 146 7 142 4 q 139 0 134 0 l 45 0 q 34 0 34 12 z"},"H":{"x_min":0,"x_max":463,"ha":463,"o":"m 376 700 l 465 700 q 470 700 473 696 q 476 693 475 688 l 392 12 q 392 7 388 4 q 384 0 379 0 l 290 0 q 285 0 282 4 q 279 7 280 12 l 315 295 q 315 300 310 300 l 187 300 q 182 300 182 295 l 147 12 q 146 7 142 4 q 139 0 134 0 l 45 0 q 34 0 34 12 l 117 688 q 118 693 122 696 q 126 700 131 700 l 220 700 q 225 700 228 696 q 231 693 230 688 l 195 406 q 195 401 200 401 l 323 401 q 328 401 328 406 l 363 688 q 364 693 368 696 q 371 700 376 700 z"},"4":{"x_min":0,"x_max":446,"ha":446,"o":"m 444 275 l 434 194 q 433 189 430 186 q 426 182 421 182 l 392 182 q 388 182 386 177 l 366 12 q 365 7 362 4 q 358 0 353 0 l 264 0 q 259 0 256 4 q 253 7 254 12 l 274 177 q 274 182 270 182 l 31 182 q 26 182 23 186 q 20 189 21 194 l 29 259 q 31 271 33 274 l 219 690 q 222 700 232 700 l 329 700 q 335 700 338 696 q 340 693 337 686 l 165 293 q 164 287 168 287 l 283 287 q 285 287 286 288 q 288 290 288 292 l 303 412 q 304 417 308 420 q 311 424 316 424 l 405 424 q 410 424 413 420 q 416 417 415 412 l 401 292 q 399 287 405 287 l 434 287 q 439 287 442 284 q 445 280 444 275 z"},"~":{"x_min":0,"x_max":465,"ha":465,"o":"m 241 242 q 220 257 206 264 q 193 271 177 271 q 138 271 107 233 q 104 228 100 227 q 95 226 91 229 l 47 259 q 40 265 44 275 q 65 318 102 345 q 138 372 180 372 q 201 372 217 366 q 233 359 253 346 q 277 330 292 322 q 308 314 328 314 q 345 314 358 324 q 372 333 386 350 q 395 360 403 354 l 450 321 q 458 314 452 305 q 426 265 392 239 q 359 213 322 213 q 298 213 282 220 q 266 227 241 242 z"},"D":{"x_min":0,"x_max":458,"ha":458,"o":"m 34 12 l 117 688 q 118 693 122 696 q 126 700 131 700 l 296 700 q 371 700 414 658 q 458 615 458 542 q 458 531 456 509 l 417 191 q 406 104 350 52 q 294 0 210 0 l 45 0 q 34 0 34 12 z m 163 100 l 221 101 q 253 101 276 128 q 299 154 306 198 l 343 502 q 344 509 344 522 q 344 559 328 580 q 311 600 281 600 l 224 600 q 219 600 219 595 l 158 105 q 158 100 163 100 z"},"^":{"x_min":0,"x_max":401,"ha":401,"o":"m 49 315 l 215 690 q 218 700 229 700 l 304 700 q 313 700 316 690 l 390 315 l 390 312 q 390 301 378 301 l 307 301 q 297 301 295 311 l 254 566 q 253 569 251 570 q 249 570 248 566 l 143 311 q 138 301 129 301 l 57 301 q 51 301 48 305 q 46 309 49 315 z"},"0":{"x_min":0,"x_max":436,"ha":436,"o":"m 38 151 q 38 161 40 183 l 81 517 q 92 604 148 658 q 204 711 285 711 q 360 711 403 667 q 446 623 446 548 q 446 539 444 517 l 403 183 q 392 96 336 42 q 279 -11 197 -11 q 123 -11 80 33 q 38 77 38 151 z m 289 176 l 332 524 q 333 529 333 540 q 333 572 317 591 q 301 610 273 610 q 242 610 220 586 q 199 563 194 524 l 152 176 q 151 170 151 158 q 151 126 166 108 q 182 90 209 90 q 241 90 262 114 q 284 137 289 176 z"},"F":{"x_min":0,"x_max":402,"ha":402,"o":"m 433 600 l 224 600 q 219 600 219 595 l 195 406 q 195 401 200 401 l 323 401 q 328 401 331 398 q 334 394 333 389 l 323 312 q 323 307 319 304 q 315 300 310 300 l 187 300 q 182 300 182 295 l 147 12 q 146 7 142 4 q 139 0 134 0 l 45 0 q 34 0 34 12 l 117 688 q 118 693 122 696 q 126 700 131 700 l 445 700 q 450 700 453 696 q 456 693 455 688 l 446 612 q 445 607 442 604 q 438 600 433 600 z"},"`":{"x_min":0,"x_max":199,"ha":199,"o":""},"k":{"x_min":0,"x_max":420,"ha":420,"o":"m 27 12 l 110 688 q 111 693 114 696 q 118 700 123 700 l 212 700 q 217 700 220 696 q 223 693 222 688 l 179 332 q 178 328 180 328 q 182 328 184 331 l 311 503 q 316 511 326 511 l 419 511 q 427 511 427 504 q 427 501 424 496 l 304 339 q 300 335 302 332 l 379 14 l 379 10 q 379 0 368 0 l 275 0 q 266 0 264 10 l 220 236 q 220 239 218 240 q 216 240 214 237 l 160 167 q 158 163 158 161 l 139 12 q 138 7 134 4 q 131 0 126 0 l 37 0 q 32 0 29 4 q 26 7 27 12 z"},"u":{"x_min":0,"x_max":425,"ha":425,"o":"m 324 511 l 413 511 q 418 511 421 508 q 424 504 423 499 l 363 12 q 362 7 358 4 q 355 0 350 0 l 261 0 q 256 0 253 4 q 250 7 251 12 l 253 34 q 254 37 252 38 q 250 39 248 36 q 214 -7 152 -7 q 100 -7 68 22 q 37 51 37 112 q 37 120 39 142 l 83 499 q 83 504 87 508 q 91 511 96 511 l 185 511 q 190 511 193 508 q 196 504 195 499 l 154 167 q 153 160 153 149 q 153 92 201 92 q 229 92 248 114 q 266 135 270 172 l 311 499 q 311 504 315 508 q 319 511 324 511 z"},"]":{"x_min":0,"x_max":320,"ha":320,"o":"m 245 -138 l 66 -138 q 61 -138 58 -134 q 54 -131 55 -126 l 65 -49 q 66 -44 70 -40 q 73 -37 78 -37 l 152 -37 q 157 -37 157 -32 l 245 686 q 247 691 241 691 l 167 691 q 162 691 159 694 q 156 698 157 703 l 166 779 q 167 784 171 788 q 175 791 180 791 l 359 791 q 364 791 367 788 q 370 784 369 779 l 258 -126 q 257 -131 254 -134 q 250 -138 245 -138 z"},"U":{"x_min":0,"x_max":464,"ha":464,"o":"m 51 159 q 51 170 53 194 l 114 688 q 114 693 118 696 q 122 700 127 700 l 216 700 q 221 700 224 696 q 227 693 226 688 l 164 182 q 163 176 163 164 q 163 131 180 112 q 196 92 224 92 q 255 92 278 117 q 301 142 306 182 l 368 688 q 369 693 372 696 q 376 700 381 700 l 470 700 q 475 700 478 696 q 481 693 480 688 l 420 194 q 409 103 352 48 q 294 -8 211 -8 q 137 -8 94 37 q 51 82 51 159 z"},"o":{"x_min":0,"x_max":419,"ha":419,"o":"m 34 129 q 34 137 36 155 l 61 356 q 70 430 122 474 q 174 519 254 519 q 327 519 368 482 q 409 444 409 381 q 409 374 407 356 l 383 155 q 374 80 322 36 q 270 -8 189 -8 q 116 -8 75 28 q 34 65 34 129 z m 271 164 l 294 348 l 295 360 q 295 386 280 402 q 266 419 242 419 q 215 419 196 400 q 177 380 173 348 l 150 164 l 149 152 q 149 125 164 109 q 178 93 202 93 q 229 93 248 112 q 267 132 271 164 z"},"N":{"x_min":0,"x_max":492,"ha":492,"o":"m 406 700 l 494 700 q 499 700 502 696 q 505 693 504 688 l 421 12 q 421 7 417 4 q 413 0 408 0 l 307 0 q 297 0 295 10 l 203 434 q 202 437 200 436 q 197 436 197 433 l 146 12 q 145 7 142 4 q 138 0 133 0 l 45 0 q 34 0 34 12 l 117 688 q 118 693 122 696 q 126 700 131 700 l 230 700 q 240 700 242 690 l 336 269 q 336 266 338 266 q 341 267 342 270 l 393 688 q 394 693 398 696 q 401 700 406 700 z"},"+":{"x_min":0,"x_max":426,"ha":426,"o":"m 424 346 l 416 282 q 415 277 412 274 q 408 270 403 270 l 275 270 q 271 270 269 265 l 253 133 q 252 128 248 124 q 245 121 240 121 l 178 121 q 173 121 170 124 q 167 128 168 133 l 184 265 q 184 270 180 270 l 52 270 q 41 270 41 282 l 49 346 q 50 351 54 354 q 57 358 62 358 l 190 358 q 196 358 196 363 l 212 495 q 213 500 216 504 q 220 507 225 507 l 287 507 q 292 507 295 504 q 298 500 297 495 l 281 363 q 281 358 285 358 l 414 358 q 419 358 422 354 q 425 351 424 346 z"},"G":{"x_min":0,"x_max":448,"ha":448,"o":"m 41 144 q 41 153 43 173 l 86 527 q 96 609 152 658 q 208 708 291 708 q 366 708 410 666 q 455 624 455 553 q 455 544 453 526 l 448 487 q 447 482 444 478 q 440 475 435 475 l 345 475 q 340 475 337 478 q 334 482 335 487 l 340 528 q 341 533 341 542 q 341 572 324 590 q 307 608 278 608 q 247 608 225 586 q 203 564 198 528 l 154 172 q 153 167 153 158 q 153 128 170 110 q 186 92 215 92 q 247 92 270 114 q 293 136 297 172 l 308 268 q 310 273 304 273 l 245 273 q 240 273 237 276 q 234 280 235 285 l 244 358 q 245 363 248 366 q 252 370 257 370 l 422 370 q 427 370 430 366 q 433 363 432 358 l 409 173 q 399 91 342 42 q 285 -8 203 -8 q 128 -8 84 33 q 41 74 41 144 z"},"q":{"x_min":0,"x_max":428,"ha":428,"o":"m 322 511 l 411 511 q 416 511 419 508 q 422 504 421 499 l 338 -177 q 337 -182 334 -186 q 330 -189 325 -189 l 236 -189 q 231 -189 228 -186 q 225 -182 226 -177 l 250 25 q 251 28 249 29 q 247 30 245 28 q 224 9 200 0 q 175 -8 153 -8 q 96 -8 65 26 q 34 61 34 123 q 34 133 36 155 l 61 357 q 70 432 112 476 q 153 519 218 519 q 270 519 301 484 q 303 482 305 483 q 307 484 307 487 l 309 499 q 309 504 313 508 q 317 511 322 511 z m 266 149 l 292 362 q 291 389 278 404 q 264 420 241 420 q 214 420 195 400 q 176 380 172 348 l 149 163 l 148 151 q 148 125 162 108 q 176 92 200 92 q 223 92 241 108 q 259 123 266 149 z"},"d":{"x_min":0,"x_max":424,"ha":424,"o":"m 345 700 l 434 700 q 439 700 442 696 q 445 693 444 688 l 361 12 q 360 7 356 4 q 353 0 348 0 l 259 0 q 254 0 251 4 q 248 7 249 12 l 250 24 q 251 27 249 28 q 247 29 245 27 q 205 -8 153 -8 q 96 -8 65 27 q 34 62 34 122 q 34 132 36 154 l 61 357 q 71 433 112 476 q 154 519 218 519 q 240 519 262 510 q 285 502 301 483 q 303 481 305 482 q 307 483 307 486 l 332 688 q 333 693 336 696 q 340 700 345 700 z m 266 149 l 292 362 q 291 388 278 404 q 264 419 241 419 q 214 419 195 400 q 176 380 172 348 l 149 163 l 148 151 q 148 125 162 108 q 176 92 200 92 q 223 92 241 108 q 259 123 266 149 z"},"1":{"x_min":0,"x_max":266,"ha":266,"o":"m 185 700 l 278 700 q 283 700 286 696 q 289 693 288 688 l 205 12 q 204 7 200 4 q 197 0 192 0 l 103 0 q 98 0 95 4 q 92 7 93 12 l 162 576 q 162 582 158 581 l 76 565 l 73 565 q 63 565 64 576 l 69 643 q 70 653 79 657 l 170 697 q 178 700 185 700 z"},"5":{"x_min":0,"x_max":415,"ha":415,"o":"m 399 268 q 399 241 395 216 q 391 180 383 146 q 369 72 318 32 q 268 -8 192 -8 q 120 -8 80 30 q 41 68 40 144 l 41 172 q 43 184 54 184 l 143 184 q 154 184 154 172 l 154 154 q 157 92 204 92 q 228 92 245 108 q 262 123 271 153 q 279 182 283 217 q 287 248 285 281 q 283 307 270 322 q 256 336 234 336 q 188 336 168 290 q 165 279 155 279 l 64 279 q 59 279 56 282 q 53 286 54 291 l 103 688 q 104 693 108 696 q 111 700 116 700 l 432 700 q 437 700 440 696 q 443 693 442 688 l 433 612 q 432 607 428 604 q 425 600 420 600 l 209 600 q 207 600 206 598 q 204 597 204 595 l 180 400 q 180 394 186 398 q 204 416 229 426 q 254 437 281 437 q 339 437 370 398 q 400 360 398 290 q 399 283 399 268 z"}}}
